<svg width="768" height="897" viewBox="0 0 768 897" fill="none" xmlns="http://www.w3.org/2000/svg">
<path d="M142.1 678.7C142.1 702.1 161.2 721.2 184.7 721.2H233.4V841.6C233.4 872.1 257.9 897 288 897C318.2 897 342.6 872.2 342.6 841.6V721.1H427.6V841.5C427.6 872 452.1 896.9 482.2 896.9C512.4 896.9 536.8 872.1 536.8 841.5V721.1H585.5C609 721.1 628.1 702 628.1 678.6V283.4H142.1V678.7V678.7ZM499.2 78.6L544.1 13.6C546.7 9.79996 546.1 4.69996 542.6 2.19996C539.1 -0.200042 534.1 0.999964 531.5 4.79996L484.9 72.4C454.2 60.3 420 53.6 384.1 53.6C348.2 53.6 314 60.3 283.3 72.4L236.7 4.89996C234.1 1.09996 229.1 -0.200036 225.6 2.29996C222.1 4.69996 221.5 9.69996 224.1 13.7L269 78.7C197.6 111.9 147.6 174.8 141.2 248.3H627.2C620.6 174.7 570.5 111.8 499.2 78.6V78.6ZM281.5 181.1C276.18 181.1 270.979 179.522 266.555 176.566C262.132 173.611 258.684 169.409 256.648 164.494C254.612 159.579 254.079 154.17 255.117 148.952C256.155 143.734 258.717 138.941 262.479 135.179C266.241 131.417 271.034 128.855 276.252 127.817C281.47 126.779 286.879 127.312 291.794 129.348C296.71 131.384 300.911 134.831 303.867 139.255C306.822 143.679 308.4 148.88 308.4 154.2C308.382 161.329 305.542 168.16 300.501 173.201C295.46 178.241 288.629 181.081 281.5 181.1V181.1ZM489.9 181.1C484.58 181.1 479.379 179.522 474.955 176.566C470.532 173.611 467.084 169.409 465.048 164.494C463.012 159.579 462.479 154.17 463.517 148.952C464.555 143.734 467.117 138.941 470.879 135.179C474.641 131.417 479.434 128.855 484.652 127.817C489.87 126.779 495.279 127.312 500.194 129.348C505.11 131.384 509.311 134.831 512.267 139.255C515.222 143.679 516.8 148.88 516.8 154.2C516.782 161.329 513.942 168.16 508.901 173.201C503.86 178.241 497.029 181.081 489.9 181.1ZM713.3 281.8C683.1 281.8 658.7 306.6 658.7 337.2V553.6C658.7 584.1 683.2 609 713.3 609C743.5 609 767.9 584.2 767.9 553.6V337.1C768 306.5 743.6 281.8 713.3 281.8ZM54.7001 281.8C24.5001 281.8 0.100098 306.6 0.100098 337.2V553.6C0.100098 584.1 24.6001 609 54.7001 609C84.9001 609 109.3 584.2 109.3 553.6V337.1C109.3 306.5 84.8001 281.8 54.7001 281.8Z" fill="white"/>
</svg>
