<?xml version="1.0" encoding="iso-8859-1"?>
<!-- Generator: Adobe Illustrator 19.0.0, SVG Export Plug-In . SVG Version: 6.00 Build 0)  -->
<svg version="1.1" id="Layer_1" xmlns="http://www.w3.org/2000/svg" xmlns:xlink="http://www.w3.org/1999/xlink" x="0px" y="0px"
	 viewBox="0 0 512 512" style="enable-background:new 0 0 512 512;" xml:space="preserve">
<g>
	<g>
		<path d="M344.882,36.25l16.828-16.829c4.444-4.444,4.444-11.643,0-16.087s-11.645-4.444-16.089,0L325.57,23.385
			c-20.36-11.263-43.746-17.696-68.616-17.696c-24.868,0-48.254,6.433-68.614,17.696L168.287,3.333
			c-4.444-4.444-11.645-4.444-16.089,0s-4.444,11.643,0,16.087l16.829,16.829c-33.032,26.067-54.296,66.534-54.296,111.78
			c0,6.283,5.095,11.497,11.378,11.497h261.69c6.283,0,11.378-5.214,11.378-11.497C399.177,102.784,377.913,62.317,344.882,36.25z
			 M138.026,136.771c5.744-59.734,56.889-108.089,118.928-108.089c62.039,0,113.184,48.356,118.928,108.089H138.026z"/>
	</g>
</g>
<g>
	<g>
		<path d="M387.799,170.905h-261.69c-6.283,0-12.332,4.855-12.332,11.14v183.944c0,30.322,25.576,55.228,55.838,55.228h1.051v50.961
			c0,21.956,17.867,39.822,39.822,39.822c21.956,0,39.822-17.867,39.822-39.822v-50.961h11.378v50.961
			c0,21.956,17.867,39.822,39.822,39.822c21.956,0,39.822-17.867,39.822-39.822v-50.961h2.96c30.261,0,53.929-24.906,53.929-55.228
			V182.045C398.223,175.76,394.082,170.905,387.799,170.905z M375.467,365.989c0,17.778-13.457,32.472-31.174,32.472H330.91
			c-6.283,0-12.332,4.85-12.332,11.139v62.578c0,9.411-7.656,17.067-17.067,17.067c-9.411,0-17.067-7.656-17.067-17.067V409.6
			c0-6.289-4.14-11.139-10.424-11.139h-34.133c-6.283,0-12.332,4.85-12.332,11.139v62.578c0,9.411-7.656,17.067-17.067,17.067
			c-9.411,0-17.067-7.656-17.067-17.067V409.6c0-6.289-4.14-11.139-10.424-11.139h-13.383c-17.717,0-33.082-14.694-33.082-32.472
			V193.66h238.934V365.989z"/>
	</g>
</g>
<g>
	<g>
		<path d="M449.423,170.667c-21.955,0-39.822,17.878-39.822,39.856v147.844c0,21.978,17.867,39.856,39.822,39.856
			c21.956,0,39.822-17.878,39.822-39.856V210.523C489.245,188.545,471.378,170.667,449.423,170.667z M466.489,358.366
			c0,9.433-7.656,17.1-17.067,17.1s-17.067-7.667-17.067-17.1V210.523c0-9.428,7.656-17.1,17.067-17.1s17.067,7.672,17.067,17.1
			V358.366z"/>
	</g>
</g>
<g>
	<g>
		<path d="M62.577,170.667c-21.955,0-39.822,17.878-39.822,39.856v147.844c0,21.978,17.867,39.856,39.822,39.856
			c21.956,0,39.822-17.878,39.822-39.856V210.523C102.4,188.545,84.533,170.667,62.577,170.667z M79.644,358.366
			c0,9.433-7.656,17.1-17.067,17.1c-9.411,0-17.067-7.667-17.067-17.1V210.523c0-9.428,7.656-17.1,17.067-17.1
			c9.411,0,17.067,7.672,17.067,17.1V358.366z"/>
	</g>
</g>
<g>
	<g>
		<circle cx="205.767" cy="102.4" r="22.756"/>
	</g>
</g>
<g>
	<g>
		<circle cx="308.167" cy="102.4" r="22.756"/>
	</g>
</g>
<g>
</g>
<g>
</g>
<g>
</g>
<g>
</g>
<g>
</g>
<g>
</g>
<g>
</g>
<g>
</g>
<g>
</g>
<g>
</g>
<g>
</g>
<g>
</g>
<g>
</g>
<g>
</g>
<g>
</g>
</svg>
