<svg width="24px" height="24px" viewBox="0 0 24 24" fill="none" xmlns="http://www.w3.org/2000/svg">
<path fill-rule="evenodd" clip-rule="evenodd" d="M15.2702 2.6268C15.3875 2.73135 15.4488 2.88493 15.4358 3.04149C15.3807 3.70352 15.2012 4.75418 14.8393 5.7919C14.6694 6.27909 14.453 6.78173 14.1791 7.24515C15.5212 7.04633 17.2578 7.24444 18.7488 8.9233C18.8521 9.03955 18.8954 9.19722 18.866 9.3499C18.8366 9.50257 18.7378 9.63288 18.5988 9.70246C18.5464 9.72866 18.3684 9.86934 18.1367 10.1709C17.9188 10.4544 17.6884 10.8349 17.5112 11.2784C17.1568 12.1652 17.0288 13.261 17.5723 14.3489C17.6957 14.5959 17.5955 14.8962 17.3485 15.0196C17.1014 15.143 16.8011 15.0428 16.6777 14.7958C15.9712 13.3816 16.1557 11.9753 16.5826 10.9073C16.796 10.3733 17.0734 9.91328 17.3438 9.5615C17.438 9.43896 17.5368 9.3224 17.637 9.2175C15.9362 7.66684 13.9653 8.20335 12.9395 8.62336C12.7067 8.71867 12.4393 8.62621 12.3152 8.40746C12.191 8.18871 12.2487 7.91177 12.4498 7.76077C13.08 7.28771 13.5594 6.4249 13.8951 5.46258C14.1143 4.8341 14.2604 4.19757 14.3483 3.66824C13.0657 4.08397 12.364 4.83311 11.9894 5.60986C11.5395 6.54289 11.5383 7.56735 11.6764 8.21235C11.714 8.38784 11.6546 8.57 11.5209 8.68966C11.3871 8.80932 11.1995 8.84812 11.0293 8.79133C10.8866 8.74373 10.7531 8.69696 10.6242 8.65183C9.89118 8.39509 9.3099 8.19149 8.0625 8.19149C7.39974 8.19149 6.50525 8.46181 5.78093 9.11771C5.07112 9.76046 4.5 10.7959 4.5 12.383C4.5 14.0311 4.87508 15.684 5.47461 17.0716C6.07836 18.469 6.88715 19.5466 7.71501 20.099C8.12532 20.3728 8.45292 20.4737 8.73221 20.4953C9.01633 20.5173 9.29282 20.4608 9.61266 20.3536C9.74505 20.3092 9.88981 20.2527 10.0464 20.1915C10.5992 19.9757 11.2996 19.7021 12.125 19.7021C12.5785 19.7021 13.0171 19.7926 13.4148 19.8934C13.576 19.9342 13.7241 19.9748 13.8656 20.0135C14.0958 20.0765 14.3087 20.1348 14.5328 20.182C15.2096 20.3246 15.6985 20.2969 16.1463 19.8487C17.0859 18.9083 18.0356 17.2605 18.5527 16.2255C18.6761 15.9785 18.9764 15.8782 19.2235 16.0017C19.4705 16.1251 19.5707 16.4254 19.4473 16.6724C18.9227 17.7225 17.9141 19.4942 16.8537 20.5555C16.0515 21.3584 15.1342 21.3307 14.3266 21.1605C14.0785 21.1083 13.8097 21.035 13.5561 20.9659C13.421 20.9291 13.2902 20.8934 13.1692 20.8627C12.7954 20.768 12.4527 20.7021 12.125 20.7021C11.5056 20.7021 11.0427 20.8816 10.5225 21.0833C10.3358 21.1557 10.1418 21.2309 9.93044 21.3017C9.5504 21.4291 9.1286 21.529 8.65504 21.4923C8.17666 21.4553 7.68718 21.2826 7.15999 20.9308C6.11285 20.2321 5.20289 18.964 4.55664 17.4683C3.90617 15.9628 3.5 14.1753 3.5 12.383C3.5 10.5296 4.17888 9.21934 5.1097 8.37645C6.026 7.54671 7.16276 7.19149 8.0625 7.19149C9.25745 7.19149 9.95699 7.37014 10.5991 7.5849C10.5743 6.86115 10.6924 5.99725 11.0887 5.17547C11.6676 3.9751 12.8175 2.91445 14.8394 2.50973C14.9934 2.4789 15.153 2.52225 15.2702 2.6268Z" fill="black"/>
</svg>
