<svg width="20" height="20" viewBox="0 0 20 20" fill="none" xmlns="http://www.w3.org/2000/svg">
<path d="M10 20C4.477 20 0 15.523 0 10C0 4.477 4.477 0 10 0C15.523 0 20 4.477 20 10C19.994 15.52 15.52 19.994 10 20ZM5.727 12.787C5.598 12.787 5.47 12.803 5.344 12.833L5.194 12.874L4.6 13.891C4.4915 14.072 4.45666 14.2877 4.50268 14.4937C4.5487 14.6996 4.67206 14.88 4.84727 14.9976C5.02249 15.1151 5.23618 15.1609 5.44419 15.1255C5.6522 15.09 5.83864 14.976 5.965 14.807L6.027 14.714L6.817 13.343C6.68896 13.1718 6.52303 13.0325 6.3322 12.936C6.14138 12.8395 5.93082 12.7885 5.717 12.787H5.727ZM11.211 6.66C10.8999 6.95227 10.6936 7.33883 10.624 7.76C10.5125 8.34073 10.6193 8.94218 10.924 9.449L13.964 14.715C14.0698 14.893 14.2385 15.0249 14.4368 15.0845C14.6351 15.1441 14.8486 15.1272 15.035 15.037C15.2209 14.9453 15.3653 14.7869 15.4395 14.5933C15.5136 14.3998 15.512 14.1854 15.435 13.993L15.386 13.893L14.586 12.502H15.776C15.9844 12.5003 16.1844 12.4195 16.3356 12.2761C16.4868 12.1326 16.5779 11.9372 16.5906 11.7291C16.6033 11.5211 16.5366 11.316 16.4039 11.1553C16.2713 10.9945 16.0826 10.8901 15.876 10.863L15.776 10.857H13.636L11.442 7.057L11.213 6.657L11.211 6.66V6.66ZM4.26 10.85C4.15254 10.8503 4.04619 10.8717 3.94704 10.9131C3.84788 10.9546 3.75787 11.0152 3.68217 11.0914C3.60646 11.1677 3.54655 11.2581 3.50585 11.3576C3.46515 11.457 3.44447 11.5635 3.445 11.671C3.445 12.085 3.753 12.435 4.164 12.488L4.264 12.493H11.744C11.8268 12.3268 11.8684 12.1431 11.8655 11.9574C11.8625 11.7718 11.815 11.5895 11.727 11.426C11.6521 11.2728 11.5406 11.1405 11.4022 11.0409C11.2639 10.9413 11.103 10.8774 10.934 10.855L10.813 10.849H8.262L11.79 4.74C11.8987 4.55063 11.9281 4.326 11.872 4.115C11.8321 3.96693 11.7516 3.83295 11.6396 3.72812C11.5277 3.6233 11.3887 3.55179 11.2384 3.52166C11.088 3.49152 10.9322 3.50395 10.7885 3.55754C10.6448 3.61113 10.5189 3.70376 10.425 3.825L10.363 3.917L10 4.551L9.641 3.917C9.53519 3.73874 9.36629 3.60672 9.16775 3.54708C8.96922 3.48745 8.75553 3.50455 8.569 3.595C8.38321 3.68705 8.23889 3.84568 8.16477 4.03932C8.09064 4.23297 8.09216 4.44742 8.169 4.64L8.218 4.74L9.048 6.2L6.363 10.85H4.26Z" fill="white"/>
</svg>
