<svg width="24" height="20" viewBox="0 0 24 20" fill="none" xmlns="http://www.w3.org/2000/svg">
<path d="M0 19.6529C0 19.6529 3.154 19.2979 5.612 17.2689C7.951 15.3389 8.797 13.6769 9.382 11.7929C9.966 9.90795 10.053 5.37395 10.053 4.02895V0.345947H8.598V1.71095C8.574 3.75195 8.398 7.62895 7.463 10.1549C5.203 16.2419 0 16.7749 0 16.7749V19.6529ZM24 19.6529C24 19.6529 20.846 19.2979 18.39 17.2689C16.048 15.3389 15.203 13.6769 14.618 11.7929C14.035 9.90795 13.947 5.37395 13.947 4.02895V0.345947H15.4L15.401 1.71095C15.425 3.75195 15.603 7.62895 16.539 10.1549C18.797 16.2419 23.999 16.7749 23.999 16.7749L24 19.6529ZM10.659 0.347947H13.344V19.6539H10.66L10.659 0.347947Z" fill="white"/>
</svg>
