<?xml version="1.0" encoding="iso-8859-1"?>
<!-- Generator: Adobe Illustrator 18.0.0, SVG Export Plug-In . SVG Version: 6.00 Build 0)  -->
<!DOCTYPE svg PUBLIC "-//W3C//DTD SVG 1.1//EN" "http://www.w3.org/Graphics/SVG/1.1/DTD/svg11.dtd">
<svg version="1.1" id="Capa_1" xmlns="http://www.w3.org/2000/svg" xmlns:xlink="http://www.w3.org/1999/xlink" x="0px" y="0px"
	 viewBox="0 0 316.656 316.656" style="enable-background:new 0 0 316.656 316.656;" xml:space="preserve">
<g>
	<path d="M169.744,128.53l-0.15-80.66L79.04,100.93l0.15,80.759L169.744,128.53z"/>
	<path d="M185.02,190.983l-37.426-21.816l45.524-27.009l-0.285-125.228L163.868,0L33.852,75.359L34.224,202.9
		c29.011,14.552,25.833,12.977,26.542,13.287v44.049l-35.582,21.961l59.256,34.459l33.987-22.299l34.478,19.921l138.567-80.763
		v-40.442l-54.17-33.573L185.02,190.983z M107.453,192.493l5.728-3.626l0.012,7.021L107.453,192.493z M128.189,180.438l3.995-2.447
		l0.021,14.741l-3.995,2.374L128.189,180.438z M178.103,133.533L71.212,196.164L71.037,95.665L177.927,33.68L178.103,133.533z
		 M103.917,285.938l-20.852,13.681L53.242,282.51l22.524-13.891v-53.762L110.1,234.92l-13.295,7.854l-0.09,38.983L103.917,285.938z
		 M270.413,197.791L152.994,266.59l-34.361-19.328l118.756-70.019L270.413,197.791z"/>
	<path d="M150.283,248.373c2.27,3.465,6.92,4.433,10.384,2.161l78.198-45.74c3.465-2.27,4.432-6.92,2.161-10.384
		c-2.271-3.465-6.919-4.432-10.384-2.161l-78.198,45.74C148.979,240.26,148.012,244.909,150.283,248.373z"/>
</g>
<g>
</g>
<g>
</g>
<g>
</g>
<g>
</g>
<g>
</g>
<g>
</g>
<g>
</g>
<g>
</g>
<g>
</g>
<g>
</g>
<g>
</g>
<g>
</g>
<g>
</g>
<g>
</g>
<g>
</g>
</svg>
