<svg fill="#fff" xmlns="http://www.w3.org/2000/svg"  viewBox="0 0 50 50" width="100px" height="100px"><path d="M 10 3 C 6.6983746 3 4 5.6983746 4 9 L 4 41.244141 L 25 47.544922 L 46 41.244141 L 46 40.5 L 46 9 C 46 5.6983746 43.301625 3 40 3 L 10 3 z M 10 5 L 40 5 C 42.220375 5 44 6.7796254 44 9 L 44 39.755859 L 25 45.455078 L 6 39.755859 L 6 9 C 6 6.7796254 7.7796254 5 10 5 z M 11 8 C 9.343 8 8 9.343 8 11 L 8 28 C 8 29.657 9.343 31 11 31 L 15 31 L 15 28 L 11 28 L 11 21 L 14 21 L 14 18 L 11 18 L 11 11 L 15 11 L 15 8 L 11 8 z M 17 8 L 17 31 L 20 31 L 20 21 L 23 21 C 24.657 21 26 19.657 26 18 L 26 11 C 26 9.343 24.657 8 23 8 L 17 8 z M 28 8 L 28 31 L 31 31 L 31 8 L 28 8 z M 36 8 C 34.343 8 33 9.343 33 11 L 33 28 C 33 29.657 34.343 31 36 31 L 39 31 C 40.657 31 42 29.657 42 28 L 42 24 L 39 24 L 39 28 L 36 28 L 36 11 L 39 11 L 39 15 L 42 15 L 42 11 C 42 9.343 40.657 8 39 8 L 36 8 z M 20 11 L 23 11 L 23 18 L 20 18 L 20 11 z M 9 33 C 8.448 33 8 33.448 8 34 L 8 38 C 8 38.552 8.448 39 9 39 L 13 39 C 13.552 39 14 38.552 14 38 L 14 36 L 12 36 L 12 37 L 13 37 L 13 37.75 C 13 37.888 12.888 38 12.75 38 L 9.25 38 C 9.112 38 9 37.888 9 37.75 L 9 34.25 C 9 34.112 9.112 34 9.25 34 L 12.75 34 C 12.888 34 13 34.112 13 34.25 L 13 35 L 14 35 L 14 34 C 14 33.448 13.552 33 13 33 L 9 33 z M 18 33 L 15 39 L 16 39 L 16.5 38 L 20.5 38 L 21 39 L 22 39 L 19 33 L 18 33 z M 23 33 L 23 39 L 24 39 L 24 35 L 25.5 38 L 26.5 38 L 28 35 L 28 39 L 29 39 L 29 33 L 28 33 L 26 37 L 24 33 L 23 33 z M 30 33 L 30 34 L 30 38 L 30 39 L 31 39 L 35 39 L 35 38 L 31 38 L 31 36.5 L 33 36.5 L 33 35.5 L 31 35.5 L 31 34 L 35 34 L 35 33 L 31 33 L 30 33 z M 37 33 C 36.448 33 36 33.448 36 34 L 36 35.5 C 36 36.052 36.448 36.5 37 36.5 L 40.75 36.5 C 40.888 36.5 41 36.612 41 36.75 L 41 37.75 C 41 37.888 40.888 38 40.75 38 L 37.25 38 C 37.112 38 37 37.888 37 37.75 L 37 37.5 L 36 37.5 L 36 38 C 36 38.552 36.448 39 37 39 L 41 39 C 41.552 39 42 38.552 42 38 L 42 36.5 C 42 35.948 41.552 35.5 41 35.5 L 37.25 35.5 C 37.112 35.5 37 35.388 37 35.25 L 37 34.25 C 37 34.112 37.112 34 37.25 34 L 40.75 34 C 40.888 34 41 34.112 41 34.25 L 41 34.5 L 42 34.5 L 42 34 C 42 33.448 41.552 33 41 33 L 37 33 z M 18.5 34 L 20 37 L 17 37 L 18.5 34 z"/></svg>