<svg width="32" height="32" viewBox="0 0 32 32" fill="none" xmlns="http://www.w3.org/2000/svg">
<g clip-path="url(#clip0_305_289)">
<path d="M4.71887 0C2.88587 0 2.21387 0.677 2.21387 2.505V24.588C2.21387 24.797 2.22487 24.989 2.24087 25.167C2.28787 25.568 2.28787 25.959 2.66187 26.396C2.69787 26.448 3.07387 26.724 3.07387 26.724C3.27687 26.823 3.41687 26.896 3.64587 26.989L14.7609 31.645C15.3339 31.906 15.5799 32.016 15.9959 32H16.0009C16.4219 32.016 16.6679 31.907 17.2409 31.645L28.3499 26.989C28.5849 26.896 28.7189 26.822 28.9269 26.724C28.9269 26.724 29.3029 26.437 29.3389 26.396C29.7139 25.959 29.7139 25.568 29.7599 25.167C29.7759 24.99 29.7869 24.798 29.7869 24.594V2.506C29.7869 0.678 29.1099 0.001 27.2819 0.001L4.71887 0ZM22.5269 4.145H23.4319C24.9429 4.145 25.6829 4.88 25.6829 6.412V8.917H23.8499V6.51C23.8499 6.021 23.6259 5.797 23.1509 5.797H22.8389C22.3499 5.797 22.1259 6.021 22.1259 6.51V14.259C22.1259 14.748 22.3499 14.972 22.8389 14.972H23.1879C23.6559 14.972 23.8799 14.748 23.8799 14.259V11.488H25.7129V14.348C25.7129 15.873 24.9639 16.624 23.4479 16.624H22.5269C21.0059 16.624 20.2599 15.868 20.2599 14.348V6.425C20.2599 4.9 21.0049 4.144 22.5269 4.144V4.145ZM6.27587 4.251H10.4269V5.954H8.13987V9.422H10.3439V11.121H8.13987V14.818H10.4589V16.522H6.27587V4.251ZM11.3639 4.251H14.2919C15.8069 4.251 16.5569 5.006 16.5569 6.531V9.792C16.5569 11.317 15.8059 12.068 14.2919 12.068H13.2349V16.521H11.3639V4.251ZM17.4009 4.251H19.2649V16.522H17.4009V4.251ZM13.2289 5.901V10.421H13.9999C14.4689 10.421 14.6929 10.193 14.6929 9.702V6.619C14.6929 6.13 14.4689 5.9 13.9999 5.9L13.2289 5.901ZM8.08787 19.437H8.36387L8.42687 19.448H8.52687L8.57887 19.464H8.63087L8.67787 19.479L8.72987 19.49L8.77087 19.501L8.86387 19.522L8.91687 19.537L8.95287 19.548L8.99387 19.564L9.04587 19.58L9.08187 19.595L9.13487 19.616L9.18187 19.637L9.22287 19.662L9.26987 19.683L9.30587 19.708L9.35887 19.735L9.39987 19.76L9.44087 19.781L9.48187 19.812L9.52487 19.839L9.56087 19.87L9.68587 19.965L9.65387 20.006L9.61787 20.042L9.58587 20.079L9.54987 20.12L9.52487 20.156L9.49287 20.193L9.45687 20.229L9.42487 20.27L9.39987 20.306L9.36287 20.349L9.33187 20.385L9.29587 20.426L9.26387 20.463L9.23887 20.504L9.20187 20.54L9.17087 20.583L9.13487 20.619L9.10287 20.655L9.06687 20.63L9.02587 20.593L8.98287 20.568L8.90587 20.516L8.85887 20.489L8.81587 20.464L8.76887 20.437L8.73287 20.416L8.69187 20.396L8.60787 20.364L8.55587 20.355L8.51487 20.344L8.46787 20.333L8.41487 20.322L8.36287 20.317H8.31087L8.24987 20.306H8.14987L8.09787 20.311H8.04587L7.99387 20.327L7.95287 20.338L7.90587 20.354L7.85887 20.363L7.81587 20.384L7.76387 20.405L7.69187 20.457L7.64887 20.482L7.61287 20.514L7.57687 20.539L7.53987 20.571L7.51487 20.607L7.47187 20.643L7.41987 20.716L7.39487 20.757L7.37387 20.804L7.34887 20.841L7.32187 20.888L7.30587 20.935L7.28587 20.976L7.26987 21.028L7.26487 21.08L7.24987 21.128L7.23887 21.18V21.232L7.23387 21.284V21.404L7.23887 21.456V21.497L7.24387 21.549L7.25287 21.596L7.26887 21.637L7.27387 21.69L7.28987 21.731L7.30487 21.767L7.32587 21.819L7.35287 21.871L7.37287 21.908L7.42487 21.991L7.45687 22.032L7.48187 22.069L7.52487 22.1L7.54987 22.136L7.58587 22.168L7.66987 22.231L7.70587 22.251L7.74687 22.278L7.79487 22.299L7.84687 22.319L7.88287 22.34L7.98687 22.371L8.03387 22.376L8.08587 22.392L8.13787 22.397H8.36187L8.42487 22.392H8.47187L8.52487 22.371L8.57687 22.366L8.62887 22.351L8.66987 22.34L8.71687 22.319L8.75787 22.299L8.80487 22.278L8.83687 22.257L8.87787 22.232V21.768H8.14287V21.024H9.80387V22.691L9.76787 22.716L9.73187 22.747L9.69487 22.774L9.65387 22.805L9.61287 22.826L9.57687 22.858L9.49287 22.91L9.44087 22.935L9.35787 22.987L9.30487 23.008L9.26387 23.028L9.21687 23.049L9.11287 23.09L9.07187 23.111L8.97687 23.142L8.92987 23.153L8.88287 23.169L8.83087 23.185L8.78987 23.194L8.63387 23.226L8.58587 23.231L8.48187 23.242L8.42487 23.247L8.37287 23.251L8.31587 23.256H8.05587L8.00387 23.247H7.95187L7.89987 23.236H7.85287L7.80087 23.22L7.64887 23.189L7.60787 23.173L7.56087 23.168L7.50887 23.147L7.41387 23.116L7.32087 23.075L7.26887 23.054L7.23287 23.033L7.18087 23.013L7.14387 22.981L7.09187 22.961L7.06087 22.934L7.01987 22.909L6.93587 22.846L6.89487 22.819L6.86287 22.788L6.82187 22.756L6.75387 22.689L6.71787 22.657L6.68687 22.621L6.64987 22.584L6.62487 22.543L6.59287 22.512L6.56787 22.469L6.53587 22.428L6.51087 22.392L6.48387 22.351L6.45887 22.303L6.43787 22.262L6.41687 22.215L6.39687 22.174L6.35587 22.079L6.33987 22.043L6.31887 21.996L6.30787 21.949L6.29887 21.908L6.28787 21.856L6.27187 21.808L6.26087 21.756L6.25587 21.715L6.24687 21.663L6.23587 21.57L6.22487 21.466V21.19L6.23587 21.137V21.085L6.25187 21.033V20.981L6.26687 20.934L6.28287 20.882L6.30387 20.789L6.31887 20.737L6.33487 20.69L6.39787 20.549L6.41787 20.508L6.43887 20.461L6.46587 20.413L6.48587 20.372L6.51287 20.336L6.56487 20.252L6.59587 20.211L6.62787 20.175L6.65287 20.134L6.72087 20.066L6.75187 20.029L6.78887 19.993L6.81987 19.957L6.86287 19.925L6.93487 19.862L6.97587 19.831L7.01887 19.804L7.05487 19.773L7.09587 19.746L7.13887 19.726L7.18587 19.699L7.23787 19.674L7.27387 19.647L7.32587 19.627L7.37287 19.606L7.41987 19.581L7.46287 19.57L7.51487 19.554L7.55587 19.533L7.60287 19.524L7.64987 19.508L7.70187 19.497L7.74487 19.481L7.79687 19.47H7.84887L7.89587 19.455H7.94787L7.99987 19.444H8.04687L8.08787 19.437ZM24.0729 19.448H24.3489L24.4119 19.459H24.5109L24.5629 19.474H24.6199L24.6719 19.49L24.7649 19.511L24.8169 19.522L24.8639 19.531L24.9169 19.547L24.9639 19.563L25.0049 19.574L25.0519 19.589L25.1039 19.605L25.1449 19.626L25.1969 19.646L25.2449 19.667L25.2919 19.694L25.3279 19.714L25.3749 19.741L25.4219 19.761L25.4649 19.788L25.5119 19.819L25.5479 19.846L25.6319 19.909L25.6729 19.934L25.6409 19.975L25.6159 20.018L25.5849 20.054L25.5529 20.095L25.5279 20.142L25.5009 20.185L25.4699 20.221L25.4379 20.262L25.4129 20.305L25.3809 20.346L25.3559 20.382L25.3239 20.423L25.2989 20.471L25.2669 20.512L25.2359 20.548L25.2039 20.589L25.1789 20.632L25.1379 20.6L25.0899 20.575L25.0539 20.548L25.0129 20.523L24.9659 20.502L24.9229 20.475L24.8759 20.455L24.8399 20.434L24.7879 20.414L24.7509 20.393L24.7099 20.377L24.6169 20.346L24.5129 20.314L24.3569 20.283L24.3049 20.278L24.2099 20.267H24.1009L24.0439 20.278L23.9919 20.289L23.9449 20.3L23.9039 20.32L23.8669 20.341L23.8259 20.377L23.7949 20.424L23.7739 20.472V20.596L23.8009 20.653L23.8209 20.685L23.8529 20.716L23.9049 20.743L23.9459 20.768L23.9929 20.789L24.0449 20.809L24.1129 20.825L24.1489 20.841L24.1919 20.852L24.2439 20.863L24.2849 20.878L24.3319 20.889L24.3889 20.905L24.4409 20.921L24.4979 20.936L24.5549 20.947L24.6019 20.963L24.6589 20.978L24.7109 20.989L24.7579 21L24.9149 21.047L24.9559 21.063L25.0079 21.079L25.0549 21.099L25.1069 21.126L25.2109 21.167L25.2579 21.194L25.3419 21.246L25.4189 21.303L25.4669 21.334L25.5029 21.37L25.5389 21.413L25.5759 21.449L25.6009 21.485L25.6379 21.537L25.6629 21.574L25.6839 21.626L25.7039 21.657L25.7199 21.709L25.7359 21.752L25.7469 21.799L25.7669 21.903L25.7719 21.955L25.7769 22.002V22.127L25.7719 22.184L25.7609 22.288L25.7499 22.34L25.7349 22.387L25.7239 22.439L25.7079 22.491L25.6929 22.538L25.6719 22.575L25.6509 22.622L25.6259 22.663L25.5939 22.7L25.5419 22.783L25.4789 22.856L25.4429 22.881L25.4019 22.918L25.3699 22.949L25.3289 22.98L25.2879 23.001L25.2469 23.033L25.1989 23.058L25.1059 23.105L25.0539 23.126L25.0069 23.146L24.9549 23.162L24.9079 23.178L24.8649 23.189L24.7609 23.209L24.7249 23.22L24.6729 23.231H24.6209L24.5739 23.242H24.5219L24.4699 23.253H24.0989L23.9429 23.237L23.8909 23.226L23.8439 23.221L23.7399 23.201L23.6829 23.19L23.6359 23.179L23.5839 23.163L23.5309 23.152L23.4839 23.137L23.4319 23.121L23.3799 23.1L23.3389 23.085L23.2869 23.069L23.2349 23.048L23.1979 23.028L23.1459 23.012L23.1049 22.985L23.0529 22.965L23.0119 22.938L22.9749 22.913L22.9229 22.886L22.8869 22.866L22.8459 22.834L22.8049 22.809L22.7619 22.777L22.7259 22.746L22.6849 22.714L22.6479 22.689L22.6069 22.652L22.6389 22.611L22.6749 22.575L22.7059 22.538L22.7429 22.497L22.7679 22.461L22.7999 22.42L22.8359 22.383L22.8669 22.347L22.9039 22.306L22.9289 22.269L22.9659 22.233L22.9969 22.192L23.0289 22.155L23.0649 22.114L23.0899 22.078L23.1269 22.041L23.1629 22L23.1989 22.032L23.2469 22.063L23.2829 22.094L23.3349 22.121L23.3709 22.148L23.4179 22.179L23.4609 22.206L23.5079 22.226L23.5439 22.253L23.5909 22.268L23.6429 22.289L23.6859 22.31L23.7329 22.325L23.7739 22.346L23.8259 22.362L23.8729 22.377L23.9249 22.393L23.9769 22.398L24.0249 22.414L24.0769 22.419H24.1339L24.1809 22.434H24.4619L24.5089 22.425L24.5609 22.414L24.5969 22.409L24.6399 22.393L24.6759 22.373L24.7229 22.341L24.7499 22.305L24.7699 22.264L24.7859 22.216V22.096L24.7649 22.049L24.7399 22.008L24.7079 21.977L24.6609 21.945L24.6249 21.93L24.5779 21.909L24.5259 21.888L24.4689 21.863L24.4319 21.852L24.3909 21.841L24.3389 21.825L24.3029 21.816L24.2509 21.8L24.1989 21.795L24.1459 21.774L24.0939 21.769L24.0369 21.754L23.9899 21.743L23.9379 21.727L23.8859 21.716L23.8339 21.701L23.7869 21.685L23.7349 21.674L23.6939 21.658L23.5989 21.627L23.5469 21.606L23.4949 21.591L23.3909 21.548L23.3439 21.523L23.2919 21.496L23.2559 21.471L23.2079 21.444L23.1719 21.419L23.1249 21.392L23.0569 21.324L23.0209 21.293L22.9579 21.22L22.9309 21.184L22.9109 21.148L22.8789 21.1L22.8639 21.064L22.8159 20.939L22.8069 20.887L22.7959 20.84V20.793L22.7849 20.741V20.528L22.7959 20.424L22.8069 20.381L22.8159 20.334L22.8319 20.293L22.8429 20.241L22.8639 20.205L22.8839 20.152L22.9049 20.111L22.9249 20.059L22.9519 20.023L22.9879 19.982L23.0149 19.939L23.0559 19.903L23.0869 19.867L23.1189 19.824L23.1659 19.788L23.1979 19.761L23.2389 19.73L23.3219 19.678L23.3689 19.651L23.4639 19.604L23.5049 19.589L23.5519 19.573L23.6039 19.552L23.6559 19.537L23.6929 19.526L23.7399 19.515L23.7809 19.504L23.8279 19.493L23.8799 19.482L23.9839 19.473L24.0319 19.468L24.0729 19.448ZM11.7549 19.484H12.6979L12.7409 19.579L12.7609 19.62L12.7769 19.672L12.7979 19.719L12.8129 19.76L12.8399 19.807L12.8709 19.902L12.8979 19.949L12.9389 20.042L12.9499 20.083L13.0329 20.271L13.0489 20.318L13.0699 20.361L13.0949 20.408L13.1059 20.455L13.1329 20.507L13.1419 20.554L13.1899 20.647L13.2099 20.684L13.2309 20.736L13.2469 20.788L13.2619 20.824L13.2889 20.876L13.3049 20.919L13.3249 20.971L13.3409 21.007L13.3619 21.059L13.4089 21.152L13.4239 21.199L13.4349 21.247L13.4559 21.294L13.4809 21.335L13.5019 21.387L13.5229 21.434L13.5379 21.475L13.5809 21.57L13.5959 21.617L13.6169 21.664L13.6329 21.711L13.6529 21.752L13.6799 21.8L13.6999 21.847L13.7209 21.888L13.7319 21.94L13.7729 22.033L13.7939 22.076L13.8089 22.123L13.8519 22.216L13.8769 22.268L13.8879 22.309L13.9149 22.362L13.9239 22.398L13.9449 22.45L13.9719 22.502L13.9919 22.538L14.0079 22.59L14.0289 22.633L14.0439 22.685L14.0709 22.721L14.1019 22.825L14.1229 22.862L14.1429 22.914L14.1699 22.955L14.1909 23.007L14.1999 23.054L14.2159 23.095L14.2369 23.142L14.2619 23.185H13.2209L13.1959 23.142L13.1799 23.095L13.1589 23.048L13.1389 22.996L13.1279 22.955L13.0849 22.862L13.0699 22.819L13.0289 22.726L13.0129 22.685L12.9919 22.633L12.9609 22.538L12.9399 22.497H11.4919L11.4719 22.544L11.4559 22.587L11.4349 22.639L11.4149 22.686L11.4039 22.727L11.3829 22.779L11.3629 22.82L11.3469 22.867L11.3259 22.91L11.3059 22.962L11.2899 22.998L11.2689 23.05L11.2539 23.102L11.2329 23.139L11.2169 23.191H10.1859L10.2009 23.143L10.2439 23.05L10.2589 22.998L10.2749 22.957L10.3019 22.91L10.3219 22.863L10.3429 22.82L10.3539 22.773L10.3739 22.721L10.4009 22.68L10.4209 22.633L10.4529 22.538L10.4999 22.445L10.5159 22.398L10.5359 22.357L10.5519 22.309L10.6149 22.169L10.6359 22.117L10.6509 22.076L10.6669 22.029L10.6939 21.986L10.7139 21.934L10.7299 21.887L10.7459 21.846L10.7659 21.794L10.7929 21.757L10.8089 21.705L10.8289 21.664L10.8449 21.617L10.8659 21.565L10.8909 21.524L10.9069 21.472L10.9269 21.435L10.9429 21.383L10.9639 21.331L10.9839 21.295L11.0049 21.243L11.0209 21.2L11.0409 21.148L11.0569 21.112L11.0839 21.06L11.1039 21.008L11.1249 20.967L11.1359 20.92L11.1559 20.872L11.1829 20.825L11.2029 20.784L11.2139 20.732L11.2349 20.685L11.2559 20.642L11.2969 20.549L11.3119 20.508L11.3549 20.404L11.3749 20.367L11.3959 20.315L11.4119 20.274L11.4269 20.222L11.4479 20.175L11.4749 20.134L11.4949 20.082L11.5109 20.045L11.5269 19.993L11.5469 19.952L11.5739 19.905L11.5899 19.853L11.6049 19.81L11.6259 19.758L11.6459 19.722L11.6729 19.67L11.6889 19.618L11.7039 19.582L11.7249 19.53L11.7549 19.484ZM14.6829 19.511H15.7139L15.7459 19.552L15.7979 19.636L15.8229 19.683L15.8499 19.719L15.8749 19.766L15.9019 19.807L15.9269 19.855L15.9539 19.896L15.9789 19.932L16.0059 19.979L16.0309 20.022L16.0679 20.063L16.0829 20.104L16.1149 20.151L16.1399 20.194L16.1719 20.23L16.1929 20.277L16.2179 20.318L16.2499 20.361L16.2649 20.402L16.3019 20.449L16.3789 20.574L16.3999 20.615L16.4309 20.656L16.4579 20.697L16.4829 20.745L16.5619 20.869L16.5869 20.917L16.6139 20.958L16.6449 20.917L16.6659 20.864L16.6969 20.828L16.7239 20.781L16.7489 20.745L16.7699 20.693L16.8059 20.656L16.8329 20.609L16.8539 20.573L16.8789 20.53L16.9109 20.483L16.9359 20.447L16.9629 20.395L16.9879 20.359L17.0199 20.311L17.0399 20.275L17.0669 20.223L17.0919 20.192L17.1189 20.149L17.1499 20.097L17.1769 20.061L17.1969 20.014L17.2289 19.977L17.2539 19.925L17.2809 19.894L17.3119 19.853L17.3389 19.801L17.3639 19.764L17.3909 19.717L17.4159 19.681L17.4429 19.629L17.4739 19.592L17.4949 19.545L17.5219 19.509H18.5689V23.228H17.5889V21.04L17.5639 21.077L17.5319 21.129L17.5069 21.16L17.4749 21.201L17.4549 21.253L17.4229 21.29L17.3979 21.326L17.3659 21.378L17.3139 21.451L17.2829 21.492L17.2559 21.544L17.2249 21.581L17.1979 21.617L17.1779 21.669L17.1459 21.705L17.1209 21.742L17.0889 21.794L17.0639 21.83L17.0319 21.871L17.0069 21.918L16.9859 21.955L16.9549 21.996L16.9279 22.043L16.8969 22.079L16.8649 22.122L16.8449 22.163L16.8179 22.21L16.7869 22.247L16.7549 22.288L16.7349 22.34L16.6979 22.371L16.6779 22.412L16.6459 22.465L16.6209 22.501H16.5999L16.5689 22.454L16.5419 22.411L16.5169 22.364L16.4899 22.328L16.4589 22.281L16.4319 22.24L16.4009 22.197L16.3739 22.156L16.3489 22.109L16.3219 22.073L16.2859 22.025L16.2649 21.984L16.2339 21.937L16.2069 21.901L16.1819 21.854L16.1499 21.811L16.1249 21.759L16.0929 21.723L16.0679 21.676L16.0409 21.633L16.0159 21.586L15.9839 21.55L15.9589 21.503L15.9269 21.462L15.9069 21.419L15.8749 21.378L15.8499 21.331L15.8179 21.295L15.7929 21.247L15.7609 21.206L15.7409 21.159L15.7039 21.123L15.6839 21.075L15.6519 21.034V23.227H14.6889V19.544L14.6829 19.511ZM19.3069 19.511H22.2399V20.35H20.2809V20.949H22.0409V21.741H20.2809V22.376H22.2649V23.22H19.3119V19.543L19.3069 19.511ZM12.2129 20.651L12.1969 20.698L12.1819 20.741L12.1609 20.793L12.1399 20.84L12.1249 20.887L12.0819 20.98L12.0619 21.032L12.0459 21.075L12.0299 21.127L12.0099 21.163L11.9939 21.215L11.9729 21.267L11.9529 21.304L11.9369 21.356L11.9169 21.397L11.9009 21.449L11.8739 21.496L11.8629 21.537L11.8429 21.589L11.8219 21.637L11.8059 21.678L11.7859 21.73H12.6449L12.6249 21.678L12.6089 21.631L12.5679 21.536L12.5519 21.489L12.5309 21.448L12.5159 21.396L12.4949 21.349L12.4789 21.302L12.4589 21.259L12.4429 21.212L12.4219 21.16L12.4069 21.119L12.3639 21.026L12.3549 20.978L12.3339 20.931L12.3129 20.879L12.2979 20.843L12.2549 20.739L12.2399 20.692L12.2129 20.651ZM10.6829 27.615H21.3639L15.9119 29.412L10.6829 27.615Z" fill="white"/>
</g>
<defs>
<clipPath id="clip0_305_289">
<rect width="32" height="32" fill="white"/>
</clipPath>
</defs>
</svg>
