<svg width="20" height="18" viewBox="0 0 20 18" fill="none" xmlns="http://www.w3.org/2000/svg">
<path d="M2 0H18C18.5304 0 19.0391 0.210714 19.4142 0.585786C19.7893 0.960859 20 1.46957 20 2V16C20 16.5304 19.7893 17.0391 19.4142 17.4142C19.0391 17.7893 18.5304 18 18 18H2C1.46957 18 0.960859 17.7893 0.585786 17.4142C0.210714 17.0391 0 16.5304 0 16V2C0 1.46957 0.210714 0.960859 0.585786 0.585786C0.960859 0.210714 1.46957 0 2 0V0ZM8.46 2.54C7.95 2.54 7.54 2.95 7.54 3.46V6.54C7.54 6.784 7.63693 7.018 7.80946 7.19054C7.982 7.36307 8.216 7.46 8.46 7.46H11.54C11.784 7.46 12.018 7.36307 12.1905 7.19054C12.3631 7.018 12.46 6.784 12.46 6.54V3.46C12.46 2.95 12.05 2.54 11.54 2.54H8.46ZM9.08 3.77H10.92C11.0022 3.77 11.0811 3.80266 11.1392 3.8608C11.1973 3.91893 11.23 3.99778 11.23 4.08V5.92C11.23 6.00222 11.1973 6.08107 11.1392 6.1392C11.0811 6.19734 11.0022 6.23 10.92 6.23H9.08C8.99778 6.23 8.91893 6.19734 8.8608 6.1392C8.80266 6.08107 8.77 6.00222 8.77 5.92V4.08C8.77 3.99778 8.80266 3.91893 8.8608 3.8608C8.91893 3.80266 8.99778 3.77 9.08 3.77V3.77ZM2.92 2.54C2.676 2.54 2.442 2.63693 2.26946 2.80946C2.09693 2.982 2 3.216 2 3.46V6.54C2 7.05 2.41 7.46 2.92 7.46H5.08V6.23H3.54C3.37 6.23 3.23 6.09 3.23 5.92V4.08C3.23 3.91 3.37 3.77 3.54 3.77H5.38C5.46222 3.77 5.54107 3.80266 5.5992 3.8608C5.65734 3.91893 5.69 3.99778 5.69 4.08V7.77C5.69 7.85222 5.65734 7.93107 5.5992 7.9892C5.54107 8.04734 5.46222 8.08 5.38 8.08H2V9.31H6C6.5 9.31 6.92 8.89 6.92 8.38V3.46C6.92 3.216 6.82307 2.982 6.65054 2.80946C6.478 2.63693 6.244 2.54 6 2.54H2.92ZM14 2.54C13.5 2.54 13.08 2.95 13.08 3.46V6.54C13.08 7.05 13.5 7.46 14 7.46H16.15V6.23H14.62C14.45 6.23 14.31 6.09 14.31 5.92V4.08C14.31 3.91 14.45 3.77 14.62 3.77H16.46C16.63 3.77 16.77 3.91 16.77 4.08V7.77C16.77 7.94 16.63 8.08 16.46 8.08H13.08V9.31H17.08C17.59 9.31 18 8.89 18 8.38V3.46C18 2.95 17.59 2.54 17.08 2.54H14ZM7.85 10.54C7.34 10.54 6.92 10.95 6.92 11.46V14.54C6.92 15.05 7.34 15.46 7.85 15.46H10.92C11.43 15.46 11.85 15.05 11.85 14.54V11.46C11.85 10.95 11.43 10.54 10.92 10.54H7.85ZM8.46 11.77H10.31C10.3511 11.7686 10.392 11.7757 10.4303 11.7908C10.4685 11.8058 10.5032 11.8286 10.5323 11.8577C10.5614 11.8868 10.5842 11.9215 10.5992 11.9597C10.6143 11.998 10.6214 12.0389 10.62 12.08V13.92C10.62 14.0022 10.5873 14.0811 10.5292 14.1392C10.4711 14.1973 10.3922 14.23 10.31 14.23H8.46C8.29 14.23 8.15 14.09 8.15 13.92V12.08C8.15 11.9978 8.18266 11.9189 8.2408 11.8608C8.29893 11.8027 8.37778 11.77 8.46 11.77V11.77ZM2.92 10.54C2.41 10.54 2 10.95 2 11.46V14.54C2 15.05 2.41 15.46 2.92 15.46H6.31V14.23H3.54C3.37 14.23 3.23 14.09 3.23 13.92V12.08C3.23 11.91 3.37 11.77 3.54 11.77H6.31V10.54H2.92V10.54ZM13.38 10.54C12.87 10.54 12.46 10.95 12.46 11.46V15.46H13.69V12.08C13.69 11.9978 13.7227 11.9189 13.7808 11.8608C13.8389 11.8027 13.9178 11.77 14 11.77H14.62V15.46H15.85V11.77H16.77V15.46H18V10.54H13.38V10.54Z" fill="white"/>
</svg>
