<svg width="898" height="898" viewBox="0 0 898 898" fill="none" xmlns="http://www.w3.org/2000/svg">
<path d="M896.9 247.4C898.9 204.4 892.9 161.3 879.2 120.4C857.2 68.1999 813 28.6 758.8 12.4C723.4 3.59996 687 -0.300046 650.5 0.999954H247.4C211 -0.300046 174.5 3.59996 139.1 12.4C84.9004 28.6 40.7004 68.1999 18.7004 120.4C5.10041 161.3 -0.999586 204.3 1.00041 247.4V650.5C-0.899586 693.6 5.10041 736.6 18.7004 777.5C40.7004 829.7 84.9004 869.3 139.1 885.5C174.5 894.3 210.9 898.2 247.4 896.9H650.5C686.9 898.2 723.4 894.3 758.8 885.5C813 869.3 857.2 829.7 879.2 777.5C892.8 736.6 898.9 693.6 896.9 650.5V247.4ZM178.7 617H145.4V418H178.7V617ZM162 384.4C150.6 384.3 141.4 375 141.5 363.5C141.6 352.1 150.9 342.9 162.4 343C173.7 343.1 182.9 352.3 182.9 363.7C182.8 375.2 173.5 384.5 162 384.4ZM362.1 622C274.2 622 218.8 559.2 218.8 459.3C218.8 359.4 274.1 296.4 362.1 296.4C450.1 296.4 505.6 359.4 505.6 459.3C505.6 559.2 450.3 622 362.1 622ZM652.3 622C586.3 622 539.9 585.6 536.6 531.2H566.6C569.9 569.1 605.5 594.8 655 594.8C702.3 594.8 736.2 569 736.2 533.6C736.2 504.1 715.8 486.6 669 474.8L629.8 464.7C571.4 449.8 545.4 425.1 545.4 383.5C545.4 332.5 591.3 296.2 653.4 296.2C715 296.2 759.8 332.6 761.7 382.6H731.7C728.9 347 697.3 323.3 652.5 323.3C608.8 323.3 576.4 347.6 576.4 382.3C576.4 409.4 596 425.4 642.4 437.2L676.6 446C740 462 766.7 486.3 766.7 530.2C766.8 585.7 722.1 622 652.3 622V622ZM362.1 324.1C293 324.1 249.5 376.4 249.5 459.3C249.5 542.2 293 594.2 362.1 594.2C431.2 594.2 475 541.9 475 459.3C475 376.7 431.3 324.1 362.1 324.1V324.1Z" fill="white"/>
</svg>
