<svg width="24px" height="24px" viewBox="0 0 24 24" xmlns="http://www.w3.org/2000/svg">
  <path d="M5.5,3 L18.5,3 C19.8807119,3 21,4.11928813 21,5.5 L21,18.5 C21,19.8807119 19.8807119,21 18.5,21 L5.5,21 C4.11928813,21 3,19.8807119 3,18.5 L3,5.5 C3,4.11928813 4.11928813,3 5.5,3 Z M5.5,4 C4.67157288,4 4,4.67157288 4,5.5 L4,18.5 C4,19.3284271 4.67157288,20 5.5,20 L18.5,20 C19.3284271,20 20,19.3284271 20,18.5 L20,5.5 C20,4.67157288 19.3284271,4 18.5,4 L5.5,4 Z M8,14.5 C8,14.7761424 7.77614237,15 7.5,15 C7.22385763,15 7,14.7761424 7,14.5 L7,11.5 C7,11.2238576 7.22385763,11 7.5,11 C7.77614237,11 8,11.2238576 8,11.5 L8,14.5 Z M7,9 L8,9 L8,10 L7,10 L7,9 Z M9,13.5 L9,10.5 C9,9.67157288 9.67157288,9 10.5,9 L11.5,9 C12.3284271,9 13,9.67157288 13,10.5 L13,13.5 C13,14.3284271 12.3284271,15 11.5,15 L10.5,15 C9.67157288,15 9,14.3284271 9,13.5 Z M10,13.5 C10,13.7761424 10.2238576,14 10.5,14 L11.5,14 C11.7761424,14 12,13.7761424 12,13.5 L12,10.5 C12,10.2238576 11.7761424,10 11.5,10 L10.5,10 C10.2238576,10 10,10.2238576 10,10.5 L10,13.5 Z M18,10.5 C18,10.7761424 17.7761424,11 17.5,11 C17.2238576,11 17,10.7761424 17,10.5 C17,10.2238576 16.7761424,10 16.5,10 L15.5,10 C15.2238576,10 15,10.2238576 15,10.5 L15,10.7792408 C15,10.994456 15.137715,11.1855254 15.3418861,11.2535824 L16.9743416,11.7977343 C17.5868549,12.0019053 18,12.5751136 18,13.2207592 L18,13.5 C18,14.3284271 17.3284271,15 16.5,15 L15.5,15 C14.6715729,15 14,14.3284271 14,13.5 C14,13.2238576 14.2238576,13 14.5,13 C14.7761424,13 15,13.2238576 15,13.5 C15,13.7761424 15.2238576,14 15.5,14 L16.5,14 C16.7761424,14 17,13.7761424 17,13.5 L17,13.2207592 C17,13.005544 16.862285,12.8144746 16.6581139,12.7464176 L15.0256584,12.2022657 C14.4131451,11.9980947 14,11.4248864 14,10.7792408 L14,10.5 C14,9.67157288 14.6715729,9 15.5,9 L16.5,9 C17.3284271,9 18,9.67157288 18,10.5 Z"/>
</svg>
