<svg fill="#fff" xmlns="http://www.w3.org/2000/svg"  viewBox="0 0 64 64" width="64px" height="64px"><path d="M 27.953125 6.9863281 A 1.0001 1.0001 0 0 0 27.84375 7 L 18.914062 7 L 10.662109 7 A 1.0001 1.0001 0 0 0 9.8242188 7.453125 L 2.9980469 17.888672 A 1.0001 1.0001 0 0 0 2.9980469 17.890625 C 2.0345474 19.363815 1.70803 21.221118 2.2871094 22.9375 C 3.0395675 25.169858 4.6682904 26.956811 6.7207031 27.664062 A 1.0007574 1.0007574 0 0 0 6.6699219 27.876953 C 5.5774938 36.697448 6.0465588 45.591877 6.484375 50.541016 C 6.7338224 53.425984 8.8318958 55.807576 11.673828 56.556641 C 24.017061 59.823758 39.963929 59.823179 52.306641 56.566406 C 55.139991 55.81732 57.259138 53.443692 57.507812 50.558594 A 1.0001 1.0001 0 0 0 57.507812 50.554688 C 57.937389 45.422188 58.43258 36.125293 57.300781 27.658203 C 59.34322 26.946081 60.962497 25.162683 61.712891 22.9375 C 62.29197 21.221118 61.96673 19.362041 61.001953 17.888672 L 54.175781 7.453125 A 1.0001 1.0001 0 0 0 53.337891 7 L 45.158203 7 A 1.0001 1.0001 0 0 0 44.837891 7 L 44.615234 7 L 35.892578 7 L 28.162109 7 A 1.0001 1.0001 0 0 0 27.953125 6.9863281 z M 11.203125 9 L 18.914062 9 L 26.820312 9 L 25.013672 19.835938 A 1.0001 1.0001 0 0 0 24.998047 20.009766 C 24.993743 23.447914 22.898713 26 20.324219 26 C 19.035646 26 18.034639 25.41696 17.259766 24.359375 C 16.484892 23.30179 16 21.751934 16 20 L 14 20 C 14 23.32152 11.218748 26 8.6484375 26 C 6.6935167 26 4.9378006 24.535954 4.1835938 22.296875 A 1.0001 1.0001 0 0 0 4.1816406 22.296875 C 3.8167168 21.215257 4.0173745 19.985138 4.671875 18.984375 L 4.6699219 18.984375 L 11.203125 9 z M 28.847656 9 L 35.892578 9 L 44.279297 9 L 47.984375 20.115234 C 47.962125 21.816308 47.496816 23.326756 46.740234 24.359375 C 45.965361 25.41696 44.964354 26 43.675781 26 C 41.099837 26 39 23.443341 39 20 A 1.0001 1.0001 0 0 0 37 20 C 37 23.387297 34.575944 26 32 26 C 29.434724 26 27.027769 23.405911 27.007812 20.039062 L 28.847656 9 z M 46.388672 9 L 52.796875 9 L 59.330078 18.984375 C 59.985302 19.985006 60.18328 21.215257 59.818359 22.296875 C 59.063189 24.536227 57.306484 26 55.351562 26 C 52.785587 26 50.013259 23.329374 50.003906 20.015625 A 1.0001 1.0001 0 0 0 49.949219 19.683594 L 46.388672 9 z M 37.480469 10.248047 L 35.486328 10.400391 C 34.888328 10.446391 34.520406 10.875656 34.566406 11.472656 C 34.612406 12.069656 35.040672 12.437578 35.638672 12.392578 L 37.632812 12.240234 C 38.230812 12.194234 38.599687 11.764969 38.554688 11.167969 C 38.508688 10.570969 38.078469 10.203047 37.480469 10.248047 z M 17.298828 10.898438 A 1.0001 1.0001 0 0 0 16.339844 11.595703 L 15.339844 14.595703 A 1.0001 1.0001 0 1 0 17.236328 15.228516 L 18.236328 12.228516 A 1.0001 1.0001 0 0 0 17.298828 10.898438 z M 37.861328 15.226562 L 35.867188 15.378906 C 35.269188 15.424906 34.899313 15.854172 34.945312 16.451172 C 34.991312 17.048172 35.421531 17.416094 36.019531 17.371094 L 38.013672 17.21875 C 38.612672 17.17275 38.979594 16.743484 38.933594 16.146484 C 38.887594 15.549484 38.459328 15.181562 37.861328 15.226562 z M 26.037109 23.912109 C 27.248279 26.293369 29.411354 28 32 28 C 34.588646 28 36.751721 26.293369 37.962891 23.912109 C 39.080731 26.280176 41.09597 28 43.675781 28 C 45.612209 28 47.272139 27.016931 48.353516 25.541016 C 48.696123 25.073409 48.895405 24.490532 49.132812 23.9375 C 50.444677 26.310679 52.751264 27.987766 55.328125 27.998047 C 56.408878 36.173413 55.935978 45.343075 55.513672 50.388672 C 55.339273 52.398402 53.862659 54.086141 51.794922 54.632812 C 39.867633 57.780006 24.112314 57.779965 12.185547 54.623047 A 1.0001 1.0001 0 0 0 12.185547 54.621094 C 10.107655 54.074051 8.6506084 52.393873 8.4765625 50.367188 A 1.0001 1.0001 0 0 0 8.4765625 50.363281 C 8.0463787 45.500413 7.5926781 36.710552 8.65625 28.123047 A 1.0007574 1.0007574 0 0 0 8.6640625 27.998047 C 11.244101 27.991161 13.553986 26.313097 14.867188 23.9375 C 15.104594 24.490532 15.303877 25.073409 15.646484 25.541016 C 16.727861 27.016931 18.387791 28 20.324219 28 C 22.904562 28 24.919447 26.280176 26.037109 23.912109 z M 25.283203 30.007812 C 25.078604 29.998512 24.874474 30.000369 24.671875 30.011719 C 22.236895 30.14812 19.99176 31.733896 19.119141 34.191406 C 19.057361 34.363786 19.005419 34.534648 18.960938 34.701172 A 1.0001 1.0001 0 0 0 18.958984 34.705078 C 17.409829 40.592286 18.053218 46.792479 18.677734 50.550781 A 1.0001 1.0001 0 0 0 18.679688 50.556641 C 18.938561 52.048247 20.377021 53.080517 21.869141 52.8125 C 22.505664 52.697485 23.084245 52.35906 23.498047 51.859375 A 1.0001 1.0001 0 0 0 23.5 51.857422 C 24.88056 50.179495 26.142992 48.404611 27.279297 46.546875 L 27.277344 46.552734 C 27.437088 46.29523 27.955156 45.999864 27.996094 46 A 1.0001 1.0001 0 0 0 28 46 L 36 46 C 36.03836 46.0011 36.560249 46.299812 36.716797 46.552734 C 37.852196 48.410401 39.115239 50.185329 40.494141 51.863281 A 1.0001 1.0001 0 0 0 40.496094 51.865234 C 41.460915 53.033257 43.229278 53.190544 44.380859 52.207031 C 44.874162 51.785996 45.20271 51.204677 45.314453 50.568359 A 1.0001 1.0001 0 0 0 45.314453 50.566406 C 45.957009 46.837744 46.566021 40.728122 45.095703 34.919922 C 44.307026 31.697023 41.205645 29.580823 37.953125 30.082031 A 1.0001 1.0001 0 0 0 37.931641 30.085938 C 36.811601 30.282749 35.766133 30.783892 34.908203 31.537109 A 1.0001 1.0001 0 0 0 34.904297 31.541016 C 34.689693 31.731515 34.708142 31.826677 34.630859 32 L 29.361328 32 C 29.283218 31.827107 29.298778 31.731235 29.083984 31.541016 C 28.509216 31.031969 27.842797 30.63887 27.123047 30.380859 C 26.516467 30.158343 25.897001 30.035713 25.283203 30.007812 z M 24.767578 32.001953 C 25.317575 31.973483 25.882509 32.054533 26.435547 32.257812 A 1.0001 1.0001 0 0 0 26.445312 32.259766 C 26.903715 32.42348 27.324987 32.676426 27.697266 32.994141 C 27.70312 33.011106 27.70147 33.007118 27.728516 33.083984 C 27.771366 33.205769 27.851317 33.444535 28.103516 33.671875 C 28.355636 33.899124 28.728806 34 29 34 L 35 34 A 1.0001 1.0001 0 0 0 35.003906 34 C 35.276614 33.9987 35.653429 33.89212 35.902344 33.662109 C 36.151259 33.432099 36.228007 33.195375 36.269531 33.074219 C 36.293413 33.004541 36.2898 33.00915 36.294922 32.992188 C 36.863741 32.511945 37.54063 32.188237 38.267578 32.058594 C 40.4984 31.720068 42.608253 33.147605 43.15625 35.400391 A 1.0001 1.0001 0 0 0 43.158203 35.410156 C 44.512885 40.759854 43.958912 46.651415 43.34375 50.222656 C 43.31149 50.406339 43.216729 50.570582 43.082031 50.685547 C 42.753612 50.966034 42.316289 50.929774 42.037109 50.591797 C 40.716174 48.984183 39.507097 47.283276 38.419922 45.503906 A 1.0001 1.0001 0 0 0 38.417969 45.5 C 37.934784 44.719355 37.165197 44.001939 36.001953 44 A 1.0001 1.0001 0 0 0 36 44 L 28.003906 44 L 28 44 C 26.835305 43.9979 26.061793 44.718471 25.578125 45.498047 A 1.0001 1.0001 0 0 0 25.574219 45.503906 C 24.486523 47.282171 23.276518 48.979865 21.955078 50.585938 C 21.839464 50.724541 21.685543 50.814602 21.515625 50.845703 C 21.104351 50.919573 20.730235 50.658037 20.652344 50.214844 C 20.051225 46.594531 19.470494 40.624614 20.894531 35.212891 C 20.927421 35.090164 20.962771 34.972383 21.001953 34.863281 A 1.0001 1.0001 0 0 0 21.003906 34.861328 C 21.608786 33.157838 23.117589 32.087364 24.767578 32.001953 z M 31.990234 34.990234 A 1.0001 1.0001 0 0 0 31.179688 35.40625 L 29.292969 37.292969 A 1.0001 1.0001 0 1 0 30.707031 38.707031 L 31 38.414062 L 31 42 A 1.0001 1.0001 0 1 0 33 42 L 33 38.414062 L 33.292969 38.707031 A 1.0001 1.0001 0 1 0 34.707031 37.292969 L 32.707031 35.292969 A 1.0001 1.0001 0 0 0 32.701172 35.289062 A 1.0001 1.0001 0 0 0 32.697266 35.283203 A 1.0001 1.0001 0 0 0 32.689453 35.277344 A 1.0001 1.0001 0 0 0 31.990234 34.990234 z"/></svg>