<svg width="32" height="30" viewBox="0 0 32 30" fill="none" xmlns="http://www.w3.org/2000/svg">
<path d="M4.172 0.787004C2.776 1.615 0.027 4.771 0 5.599V6.974C0 8.709 1.625 10.241 3.099 10.241C4.87 10.241 6.35 8.772 6.35 7.028C6.35 8.772 7.771 10.241 9.547 10.241C11.318 10.241 12.698 8.772 12.698 7.028C12.698 8.772 14.214 10.241 15.985 10.241H16.017C17.793 10.241 19.308 8.772 19.308 7.028C19.308 8.772 20.689 10.241 22.46 10.241C24.231 10.241 25.657 8.772 25.657 7.028C25.657 8.772 27.132 10.241 28.902 10.241C30.381 10.241 32.006 8.709 32.006 6.974V5.599C31.974 4.771 29.23 1.615 27.829 0.787004C23.49 0.631004 20.485 0.604004 16.006 0.604004C11.522 0.609004 5.413 0.677004 4.178 0.787004H4.172ZM12.677 9.421C12.5065 9.71428 12.2962 9.9825 12.052 10.218V10.223C11.3564 10.9004 10.4239 11.2797 9.453 11.28C8.48048 11.2818 7.54652 10.8998 6.854 10.217C6.6168 9.98524 6.41467 9.72012 6.254 9.43C6.087 9.727 5.854 9.982 5.609 10.217C4.9154 10.8982 3.98214 11.2799 3.01 11.28H3.005C2.88543 11.2752 2.76749 11.2505 2.656 11.207C2.53443 12.5162 2.45972 13.8294 2.432 15.144V15.149C2.427 15.676 2.427 16.102 2.421 16.701C2.453 19.816 2.114 26.79 3.797 28.504C6.401 29.108 11.193 29.384 15.994 29.389H15.999C20.806 29.384 25.592 29.108 28.196 28.504C29.879 26.791 29.54 19.816 29.572 16.701C29.567 16.102 29.567 15.676 29.561 15.149V15.144C29.5358 13.8293 29.4611 12.5161 29.337 11.207C29.2257 11.251 29.1076 11.2757 28.988 11.28H28.983C28.0109 11.2799 27.0776 10.8982 26.384 10.217H26.389C26.144 9.982 25.91 9.728 25.744 9.43H25.739C25.5799 9.71979 25.3794 9.98489 25.144 10.217C24.4503 10.898 23.5171 11.2795 22.545 11.2795C21.5729 11.2795 20.6397 10.898 19.946 10.217C19.7056 9.98437 19.4986 9.71952 19.331 9.43L19.32 9.414C19.148 9.722 18.94 9.987 18.705 10.217C18.0114 10.8982 17.0781 11.2799 16.106 11.28H16.101C16.07 11.28 16.033 11.28 15.997 11.275C15.961 11.28 15.924 11.28 15.888 11.28H15.883C14.9124 11.281 13.9806 10.899 13.29 10.217C13.0497 9.98578 12.8445 9.72064 12.681 9.43L12.67 9.414L12.677 9.421ZM10.005 12.875C11.062 12.88 12 12.875 13.166 14.146C14.082 14.053 15.041 14.006 15.999 14.006C16.957 14.006 17.916 14.053 18.832 14.146C19.999 12.875 20.936 12.875 21.993 12.875H21.998C22.498 12.875 24.498 12.875 25.889 16.787L27.384 22.156C28.493 26.151 27.029 26.251 25.207 26.251C22.499 26.151 20.999 24.183 20.999 22.214C19.499 22.465 17.748 22.585 15.999 22.585C14.25 22.585 12.499 22.465 11.004 22.214C11.004 24.183 9.504 26.151 6.796 26.251C4.968 26.246 3.504 26.151 4.613 22.156L6.108 16.787C7.504 12.875 9.504 12.875 10.004 12.875H10.005ZM16 15.953C15.995 15.953 13.151 18.573 12.636 19.5L14.5 19.427V21.052C14.5 21.131 15.251 21.099 16 21.063C16.749 21.099 17.495 21.131 17.495 21.052V19.427L19.364 19.5C18.849 18.573 16 15.953 16 15.953Z" fill="white"/>
</svg>
