<?xml version="1.0" encoding="iso-8859-1"?>
<!-- Generator: Adobe Illustrator 19.0.0, SVG Export Plug-In . SVG Version: 6.00 Build 0)  -->
<svg version="1.1" id="Layer_1" xmlns="http://www.w3.org/2000/svg" xmlns:xlink="http://www.w3.org/1999/xlink" x="0px" y="0px"
	 viewBox="0 0 473.935 473.935" style="enable-background:new 0 0 473.935 473.935;" xml:space="preserve">
<circle style="fill:#344E5D;" cx="236.967" cy="236.967" r="236.967"/>
<radialGradient id="SVGID_1_" cx="13.4697" cy="528.3893" r="31.929" gradientTransform="matrix(3.7418 0 0 -3.7418 186.5668 2214.0767)" gradientUnits="userSpaceOnUse">
	<stop  offset="0.818" style="stop-color:#D8D5DB"/>
	<stop  offset="1" style="stop-color:#D8D5DB"/>
</radialGradient>
<path style="fill:url(#SVGID_1_);" d="M236.956,117.477c-0.004,0-0.007,0-0.007,0c22.679,34.26,35.917,75.318,35.917,119.475
	c0,44.164-13.238,85.219-35.917,119.483c0,0,0.004,0,0.007,0c65.986,0,119.475-53.496,119.475-119.483
	C356.431,170.974,302.939,117.477,236.956,117.477z"/>
<path style="fill:#717171;" d="M236.945,117.477c-65.983,0.007-119.468,53.496-119.468,119.475
	c0,65.986,53.485,119.475,119.468,119.483c22.679-34.26,35.917-75.318,35.917-119.483
	C272.862,192.796,259.624,151.737,236.945,117.477z"/>
<g>
</g>
<g>
</g>
<g>
</g>
<g>
</g>
<g>
</g>
<g>
</g>
<g>
</g>
<g>
</g>
<g>
</g>
<g>
</g>
<g>
</g>
<g>
</g>
<g>
</g>
<g>
</g>
<g>
</g>
</svg>
