<svg width="150" height="150" viewBox="0 0 150 150" fill="none" xmlns="http://www.w3.org/2000/svg">
<path d="M74.9998 0C33.645 0 0 33.645 0 74.9998C0 116.355 33.645 150 74.9998 150C116.355 150 150 116.355 150 74.9998C150 33.645 116.355 0 74.9998 0ZM74.9998 140C39.16 140 10.0001 110.842 10.0001 75.0001C10.0001 39.1579 39.16 10.0001 74.9998 10.0001C110.84 10.0001 140 39.1576 140 75.0001C140 110.843 110.84 140 74.9998 140Z" fill="white"/>
<path d="M75.0001 15C41.9177 15 15 41.9174 15 75.0001C15 108.083 41.9174 135 75.0001 135C108.083 135 135 108.083 135 75.0001C135 41.9174 108.083 15 75.0001 15ZM72.5002 29.9998C72.5002 28.6172 73.6201 27.4999 75.0001 27.4999C76.38 27.4999 77.4999 28.6175 77.4999 29.9998V54.9996C77.4999 56.3823 76.38 57.4995 75.0001 57.4995C73.6201 57.4995 72.5002 56.382 72.5002 54.9996V29.9998V29.9998ZM55.0002 77.4999H30.0004C28.6204 77.4999 27.5005 76.3824 27.5005 75.0001C27.5005 73.6174 28.6204 72.5002 30.0004 72.5002H55.0002C56.3802 72.5002 57.5001 73.6177 57.5001 75.0001C57.5001 76.3824 56.3802 77.4999 55.0002 77.4999ZM77.5002 120C77.5002 121.382 76.3803 122.5 75.0004 122.5C73.6204 122.5 72.5005 121.382 72.5005 120V94.9999C72.5005 93.6173 73.6204 92.5 75.0004 92.5C76.3803 92.5 77.5002 93.6176 77.5002 94.9999V120ZM75.0001 79.9998C72.2375 79.9998 70 77.7596 70 74.9998C70 72.2372 72.2375 69.9997 75.0001 69.9997C77.7626 69.9997 80.0001 72.2372 80.0001 74.9998C80.0001 77.7599 77.7626 79.9998 75.0001 79.9998ZM120 77.4999H95.0002C93.6202 77.4999 92.5003 76.3824 92.5003 75.0001C92.5003 73.6174 93.6202 72.5002 95.0002 72.5002H120C121.38 72.5002 122.5 73.6177 122.5 75.0001C122.5 76.3824 121.38 77.4999 120 77.4999Z" fill="white"/>
</svg>
