<?xml version="1.0" encoding="iso-8859-1"?>
<!-- Generator: Adobe Illustrator 19.0.0, SVG Export Plug-In . SVG Version: 6.00 Build 0)  -->
<svg version="1.1" id="Layer_1" xmlns="http://www.w3.org/2000/svg" xmlns:xlink="http://www.w3.org/1999/xlink" x="0px" y="0px"
	 viewBox="0 0 512 512" style="enable-background:new 0 0 512 512;" xml:space="preserve">
<g>
	<g>
		<path d="M510.809,247.187C506.147,110.588,393.378,0.427,255.405,0.427C117.432,0.427,4.664,110.588,0,247.187h0.854v17.626H0
			c4.564,134.396,113.218,242.143,247.614,246.706v0.054h17.626v-0.054c132.193-4.564,241.006-112.31,245.569-246.706H512v-17.626
			H510.809z M247.614,493.883c-125.583-4.548-225.429-105.69-229.977-229.07h26.456c4.518,110.161,93.36,198.096,203.521,202.614
			V493.883z M247.614,449.788c-101.348-4.492-181.391-85.831-185.883-184.975h88.942v44.249c0,29.113,22.667,52.692,51.786,52.692
			h45.155V449.788z M247.614,344.129h-45.155c-19.399,0-34.161-15.668-34.161-35.066v-44.249h79.316V344.129z M247.614,247.187
			h-79.316v-44.018c0-19.399,14.762-35.298,34.161-35.298h45.155V247.187z M247.614,150.246h-45.155
			c-29.119,0-51.786,23.804-51.786,52.923v44.018H61.731c4.492-99.145,84.535-180.253,185.883-184.746V150.246z M247.614,44.803
			C137.453,49.322,48.612,137.026,44.093,247.187H17.638c4.547-123.38,104.393-224.292,229.977-228.84V44.803z M265.24,62.441
			c99.145,4.493,179.346,85.602,183.839,184.746h-86.898v-44.018c0-29.119-24.711-52.923-53.83-52.923H265.24V62.441z
			 M449.079,264.813c-4.493,99.145-84.695,180.483-183.839,184.975v-88.034h43.111c29.119,0,53.83-23.579,53.83-52.692v-44.249
			H449.079z M265.24,167.871h43.111c19.399,0,36.205,15.899,36.205,35.298v44.018H265.24V167.871z M265.24,344.129v-79.316h0h79.316
			v44.249c0,19.399-16.806,35.066-36.205,35.066H265.24z M265.24,493.883v-26.456c107.957-4.518,196.959-92.453,201.476-202.614
			h26.456C488.625,388.193,388.62,489.334,265.24,493.883z M466.716,247.187C462.199,137.026,373.197,49.322,265.24,44.803V18.348
			c123.38,4.547,223.385,105.46,227.932,228.84H466.716z"/>
	</g>
</g>
<g>
</g>
<g>
</g>
<g>
</g>
<g>
</g>
<g>
</g>
<g>
</g>
<g>
</g>
<g>
</g>
<g>
</g>
<g>
</g>
<g>
</g>
<g>
</g>
<g>
</g>
<g>
</g>
<g>
</g>
</svg>
