<svg width="26" height="32" viewBox="0 0 26 32" fill="none" xmlns="http://www.w3.org/2000/svg">
<path d="M25.3071 5.52105L25.2971 9.95905H11.1621C10.8701 9.95905 10.6361 10.204 10.6361 10.49C10.6361 10.787 10.8761 11.026 11.1621 11.026L14.8441 11.005C20.6411 11.005 25.3341 15.703 25.3341 21.495C25.3341 27.292 20.6411 31.985 14.8441 31.985L0.662109 32.001L0.672109 27.501H14.8491C18.1671 27.501 20.8541 24.813 20.8541 21.496C20.8541 18.179 18.1661 15.486 14.8491 15.486L11.1511 15.45C8.40611 15.45 6.18211 13.226 6.18211 10.486C6.18211 7.74105 8.40611 5.52205 11.1461 5.52205L25.3071 5.52105ZM0.682109 26.458L0.677109 22.015H14.8231C15.1041 22.015 15.3331 21.781 15.3331 21.499C15.3331 21.213 15.1041 20.983 14.8231 20.983H11.1621C5.37011 20.983 0.678109 16.285 0.678109 10.488C0.678109 4.69605 5.37111 -0.00195312 11.1621 -0.00195312L25.2971 0.00304687L25.3071 4.46705L11.1661 4.47205C7.84811 4.47205 5.16611 7.16505 5.16611 10.482C5.16611 13.799 7.86411 16.487 11.1871 16.487L14.8851 16.529C17.6251 16.529 19.8491 18.753 19.8491 21.493C19.8491 24.233 17.6251 26.451 14.8851 26.451H0.687109L0.682109 26.458Z" fill="white"/>
</svg>
