<svg fill="#fff" xmlns="http://www.w3.org/2000/svg"  viewBox="0 0 64 64" width="64px" height="64px"><path d="M 31 2 C 15.972656 2 3.582031 13.492188 2.140625 28.144531 C 2.136719 28.171875 2.136719 28.195313 2.136719 28.21875 C 2.046875 29.132813 2 30.0625 2 31 C 2 46.988281 15.011719 60 31 60 C 46.988281 60 60 46.988281 60 31 C 60 15.011719 46.988281 2 31 2 Z M 31 4 C 45.886719 4 58 16.113281 58 31 C 58 45.886719 45.886719 58 31 58 C 16.113281 58 4 45.886719 4 31 C 4 30.65625 4.011719 30.3125 4.023438 29.96875 L 16.078125 36.925781 C 16.023438 37.328125 15.992188 37.730469 16 38.136719 C 16.070313 42.398438 19.597656 45.925781 23.863281 46 C 23.910156 46 23.957031 46 24 46 C 28.0625 46 31.460938 42.992188 31.9375 38.953125 C 31.964844 38.71875 32.109375 38.492188 32.328125 38.332031 L 35.324219 36.136719 C 35.519531 35.992188 35.769531 35.925781 36 35.949219 C 36.328125 35.980469 36.660156 36 37 36 C 39.996094 36 42.796875 34.816406 44.886719 32.671875 C 46.976563 30.523438 48.078125 27.6875 47.996094 24.6875 C 47.835938 18.957031 43.042969 14.164063 37.3125 14.003906 C 34.34375 13.929688 31.476563 15.023438 29.328125 17.113281 C 27.183594 19.203125 26 22.003906 26 25 C 26 25.339844 26.019531 25.671875 26.050781 26 C 26.078125 26.238281 26.007813 26.480469 25.863281 26.675781 L 23.667969 29.671875 C 23.507813 29.890625 23.28125 30.03125 23.046875 30.0625 C 21.589844 30.234375 20.207031 30.808594 19.050781 31.71875 L 5.03125 23.625 C 8.253906 12.3125 18.671875 4 31 4 Z M 30.757813 7.003906 C 26.859375 7.046875 23.003906 8.074219 19.609375 10.015625 C 19.128906 10.285156 18.960938 10.898438 19.234375 11.375 C 19.417969 11.699219 19.753906 11.882813 20.105469 11.882813 C 20.273438 11.882813 20.441406 11.839844 20.597656 11.75 C 24.734375 9.390625 29.617188 8.507813 34.339844 9.265625 C 34.882813 9.355469 35.394531 8.984375 35.484375 8.4375 C 35.570313 7.890625 35.199219 7.378906 34.65625 7.289063 C 33.359375 7.082031 32.058594 6.988281 30.757813 7.003906 Z M 38.65625 8.386719 C 38.269531 8.402344 37.90625 8.648438 37.765625 9.035156 C 37.570313 9.554688 37.832031 10.128906 38.351563 10.324219 C 39.0625 10.589844 39.765625 10.894531 40.453125 11.238281 C 40.597656 11.3125 40.75 11.347656 40.902344 11.347656 C 41.265625 11.347656 41.617188 11.148438 41.796875 10.796875 C 42.042969 10.308594 41.84375 9.703125 41.351563 9.453125 C 40.605469 9.078125 39.828125 8.738281 39.050781 8.449219 C 38.921875 8.402344 38.789063 8.382813 38.65625 8.386719 Z M 37.253906 16.003906 C 41.945313 16.132813 45.867188 20.054688 45.996094 24.746094 C 46.0625 27.199219 45.160156 29.515625 43.453125 31.273438 C 41.742188 33.03125 39.449219 34 37 34 C 36.730469 34 36.460938 33.984375 36.199219 33.957031 C 35.46875 33.882813 34.738281 34.085938 34.140625 34.519531 L 31.144531 36.71875 C 30.480469 37.207031 30.046875 37.933594 29.953125 38.71875 C 29.589844 41.78125 27 44.074219 23.894531 44 C 20.75 43.945313 18.054688 41.246094 18 38.101563 C 18 38.082031 18.003906 38.058594 18.003906 38.039063 L 22.488281 40.628906 C 22.960938 40.898438 23.476563 41.03125 23.984375 41.03125 C 25.023438 41.03125 26.035156 40.492188 26.589844 39.53125 C 27.414063 38.097656 26.921875 36.257813 25.488281 35.433594 L 20.96875 32.824219 C 21.679688 32.40625 22.464844 32.140625 23.28125 32.046875 C 24.066406 31.953125 24.792969 31.515625 25.28125 30.851563 L 27.480469 27.855469 C 27.914063 27.261719 28.117188 26.527344 28.042969 25.800781 C 28.015625 25.539063 28 25.269531 28 25 C 28 22.550781 28.96875 20.257813 30.726563 18.546875 C 32.484375 16.839844 34.828125 15.941406 37.253906 16.003906 Z M 37 19 C 33.691406 19 31 21.691406 31 25 C 31 28.308594 33.691406 31 37 31 C 40.308594 31 43 28.308594 43 25 C 43 21.691406 40.308594 19 37 19 Z M 37 21 C 39.207031 21 41 22.792969 41 25 C 41 27.207031 39.207031 29 37 29 C 34.792969 29 33 27.207031 33 25 C 33 22.792969 34.792969 21 37 21 Z M 4.535156 25.644531 L 24.488281 37.167969 C 24.96875 37.441406 25.132813 38.054688 24.855469 38.53125 C 24.582031 39.007813 23.96875 39.175781 23.488281 38.894531 L 4.203125 27.761719 C 4.289063 27.046875 4.394531 26.339844 4.535156 25.644531 Z M 21.375 48.394531 C 20.984375 48.347656 20.589844 48.527344 20.386719 48.886719 L 19.386719 50.617188 C 19.109375 51.097656 19.273438 51.707031 19.75 51.984375 C 19.90625 52.074219 20.078125 52.117188 20.25 52.117188 C 20.59375 52.117188 20.929688 51.9375 21.113281 51.617188 L 22.113281 49.886719 C 22.390625 49.410156 22.230469 48.796875 21.75 48.519531 C 21.628906 48.453125 21.503906 48.410156 21.375 48.394531 Z M 40.625 48.394531 C 40.496094 48.410156 40.367188 48.453125 40.25 48.519531 C 39.769531 48.796875 39.609375 49.410156 39.886719 49.890625 L 40.886719 51.621094 C 41.070313 51.941406 41.40625 52.121094 41.75 52.121094 C 41.921875 52.121094 42.09375 52.074219 42.25 51.984375 C 42.730469 51.707031 42.890625 51.097656 42.613281 50.621094 L 41.613281 48.890625 C 41.40625 48.53125 41.011719 48.347656 40.625 48.394531 Z M 36.1875 50.34375 C 36.058594 50.324219 35.921875 50.332031 35.785156 50.371094 C 35.253906 50.511719 34.9375 51.0625 35.078125 51.59375 L 35.597656 53.527344 C 35.71875 53.972656 36.121094 54.265625 36.5625 54.265625 C 36.652344 54.265625 36.738281 54.257813 36.824219 54.234375 C 37.355469 54.089844 37.675781 53.542969 37.53125 53.011719 L 37.015625 51.078125 C 36.90625 50.675781 36.570313 50.398438 36.1875 50.34375 Z M 25.816406 50.34375 C 25.429688 50.398438 25.09375 50.675781 24.984375 51.078125 L 24.46875 53.011719 C 24.324219 53.542969 24.644531 54.089844 25.175781 54.234375 C 25.261719 54.257813 25.347656 54.265625 25.4375 54.265625 C 25.875 54.265625 26.28125 53.972656 26.402344 53.527344 L 26.921875 51.59375 C 27.0625 51.0625 26.746094 50.511719 26.214844 50.371094 C 26.082031 50.332031 25.945313 50.328125 25.816406 50.34375 Z M 31 51 C 30.445313 51 30 51.445313 30 52 L 30 54 C 30 54.554688 30.445313 55 31 55 C 31.554688 55 32 54.554688 32 54 L 32 52 C 32 51.445313 31.554688 51 31 51 Z"/></svg>