<svg width="15" height="15" viewBox="0 0 15 15" fill="none" xmlns="http://www.w3.org/2000/svg">
<path d="M3.5 4C3.36739 4 3.24021 4.05268 3.14645 4.14645C3.05268 4.24021 3 4.36739 3 4.5C3 4.63261 3.05268 4.75979 3.14645 4.85355C3.24021 4.94732 3.36739 5 3.5 5C3.63261 5 3.75979 4.94732 3.85355 4.85355C3.94732 4.75979 4 4.63261 4 4.5C4 4.36739 3.94732 4.24021 3.85355 4.14645C3.75979 4.05268 3.63261 4 3.5 4Z" fill="white"/>
<path fill-rule="evenodd" clip-rule="evenodd" d="M7 0.5V12.5C7 12.6326 6.94732 12.7598 6.85355 12.8536C6.75979 12.9473 6.63261 13 6.5 13H3.5C2.57174 13 1.6815 12.6313 1.02513 11.9749C0.368749 11.3185 0 10.4283 0 9.5L0 3.5C0 2.57174 0.368749 1.6815 1.02513 1.02513C1.6815 0.368749 2.57174 0 3.5 0L6.5 0C6.63261 0 6.75979 0.0526784 6.85355 0.146447C6.94732 0.240215 7 0.367392 7 0.5ZM2 4.5C2 4.30302 2.0388 4.10796 2.11418 3.92597C2.18956 3.74399 2.30005 3.57863 2.43934 3.43934C2.57863 3.30005 2.74399 3.18956 2.92597 3.11418C3.10796 3.0388 3.30302 3 3.5 3C3.69698 3 3.89204 3.0388 4.07403 3.11418C4.25601 3.18956 4.42137 3.30005 4.56066 3.43934C4.69995 3.57863 4.81044 3.74399 4.88582 3.92597C4.9612 4.10796 5 4.30302 5 4.5C5 4.89782 4.84196 5.27936 4.56066 5.56066C4.27936 5.84196 3.89782 6 3.5 6C3.10218 6 2.72064 5.84196 2.43934 5.56066C2.15804 5.27936 2 4.89782 2 4.5V4.5Z" fill="white"/>
<path d="M11.5 10C11.3674 10 11.2402 10.0527 11.1464 10.1464C11.0527 10.2402 11 10.3674 11 10.5C11 10.6326 11.0527 10.7598 11.1464 10.8536C11.2402 10.9473 11.3674 11 11.5 11C11.6326 11 11.7598 10.9473 11.8536 10.8536C11.9473 10.7598 12 10.6326 12 10.5C12 10.3674 11.9473 10.2402 11.8536 10.1464C11.7598 10.0527 11.6326 10 11.5 10Z" fill="white"/>
<path fill-rule="evenodd" clip-rule="evenodd" d="M15 5.5V11.5C15 12.4283 14.6313 13.3185 13.9749 13.9749C13.3185 14.6313 12.4283 15 11.5 15H8.5C8.36739 15 8.24021 14.9473 8.14645 14.8536C8.05268 14.7598 8 14.6326 8 14.5V2.5C8 2.36739 8.05268 2.24021 8.14645 2.14645C8.24021 2.05268 8.36739 2 8.5 2H11.5C12.4283 2 13.3185 2.36875 13.9749 3.02513C14.6313 3.6815 15 4.57174 15 5.5V5.5ZM10 10.5C10 10.1022 10.158 9.72064 10.4393 9.43934C10.7206 9.15804 11.1022 9 11.5 9C11.8978 9 12.2794 9.15804 12.5607 9.43934C12.842 9.72064 13 10.1022 13 10.5C13 10.8978 12.842 11.2794 12.5607 11.5607C12.2794 11.842 11.8978 12 11.5 12C11.1022 12 10.7206 11.842 10.4393 11.5607C10.158 11.2794 10 10.8978 10 10.5Z" fill="white"/>
</svg>
