<svg width="80" height="80" viewBox="0 0 80 80" fill="none" xmlns="http://www.w3.org/2000/svg">
<path d="M40 0C17.944 0 0 17.944 0 40.0004C0 62.0564 17.9436 80 40 80C62.0564 80 80 62.0564 80 40.0004C80 17.944 62.0564 0 40 0ZM74.26 48.1084C74.1508 48.5704 73.8228 48.9504 73.382 49.1272C72.9408 49.304 72.4412 49.2556 72.0428 48.9972L68.6872 46.8204C63.8488 43.6816 61.7372 37.6752 63.5468 32.1996L68.0088 18.6988C72.5212 24.6184 75.2084 32 75.2084 40.0008C75.2088 42.7908 74.878 45.5044 74.26 48.1084ZM53.7728 7.6072C54.8868 8.0824 55.4096 9.36719 54.9432 10.4848L53.5016 13.9384C53.2936 14.436 52.8204 14.7712 52.282 14.8012C51.7424 14.8312 51.2344 14.5512 50.9724 14.0796L46.114 5.33359C48.782 5.80279 51.3464 6.572 53.7728 7.6072ZM40 4.79121C40.8064 4.79121 41.5492 5.232 41.9356 5.9396L48.2312 17.4648C49.552 19.8824 48.6804 22.9124 46.2772 24.2588L31.2148 32.6984C30.5868 33.0504 30.17 33.6864 30.0976 34.4028C30.0252 35.1192 30.3068 35.826 30.8524 36.296L37.6436 42.1524C38.5212 42.9088 39.6416 43.3252 40.8004 43.3252H46.5204C47.6056 43.3252 48.6584 43.6904 49.5112 44.3608L57.7244 50.8276C58.8008 51.6748 59.4668 52.9396 59.5572 54.3064C59.648 55.6736 59.154 57.0148 58.1988 57.9968L44.7808 71.7832C44.2876 72.29 43.5356 72.4476 42.88 72.1812C42.2244 71.9144 41.7956 71.2776 41.7956 70.5704V62.3496C41.7956 60.9808 41.324 59.6532 40.4612 58.5904L38.3836 56.0344C37.9332 55.4796 37.6872 54.7872 37.6872 54.0728V50.7488C37.6872 49.9392 37.3476 49.1672 36.7512 48.6204L17.3384 30.8172C15.88 29.4788 15.0488 27.5904 15.0488 25.6104V17.0596C15.0488 15.818 15.5768 14.6356 16.5004 13.806C22.7372 8.20401 30.9768 4.79121 40 4.79121Z" fill="white"/>
</svg>
