<svg width="16" height="16" viewBox="0 0 16 16" fill="none" xmlns="http://www.w3.org/2000/svg">
<path d="M7.20208 15.967C5.93452 15.8364 4.71662 15.4043 3.65008 14.707C2.75208 14.122 2.54908 13.881 2.54908 13.401C2.54908 12.436 3.61108 10.745 5.42808 8.818C6.45908 7.723 7.89708 6.44 8.05208 6.475C8.35408 6.543 10.7701 8.898 11.6741 10.006C13.1041 11.759 13.7621 13.195 13.4281 13.835C13.1741 14.321 11.5981 15.272 10.4411 15.637C9.48708 15.938 8.23408 16.066 7.20208 15.967V15.967ZM1.33608 12.397C0.589084 11.253 0.212084 10.127 0.0300835 8.497C-0.0299165 7.958 -0.00791648 7.651 0.167084 6.547C0.385084 5.17 1.16908 3.577 2.11208 2.597C2.51308 2.18 2.54908 2.17 3.03808 2.334C3.63308 2.534 4.26808 2.972 5.25108 3.862L5.82508 4.381L5.51208 4.766C4.05608 6.553 2.52008 9.086 1.94008 10.653C1.62508 11.505 1.49808 12.36 1.63408 12.716C1.72508 12.956 1.64108 12.866 1.33408 12.397H1.33608ZM14.4371 12.592C14.5111 12.232 14.4181 11.572 14.1991 10.905C13.7261 9.462 12.1441 6.777 10.6911 4.952L10.2341 4.377L10.7281 3.923C11.3741 3.33 11.8231 2.975 12.3081 2.673C12.6891 2.436 13.2351 2.225 13.4691 2.225C13.6141 2.225 14.1231 2.753 14.5341 3.329C15.188 4.26093 15.645 5.31645 15.8771 6.431C16.0301 7.159 16.0431 8.717 15.9011 9.443C15.7678 10.0932 15.5667 10.7277 15.3011 11.336C15.1221 11.729 14.6771 12.492 14.4811 12.74C14.3811 12.868 14.3811 12.867 14.4381 12.592H14.4371ZM7.33508 1.952C6.66508 1.612 5.63108 1.247 5.05908 1.149C4.80792 1.1116 4.55387 1.0972 4.30008 1.106C3.82908 1.13 3.85008 1.106 4.60608 0.748004C5.19872 0.463391 5.82504 0.255063 6.47008 0.128004C7.27008 -0.0409957 8.77608 -0.0419958 9.56408 0.123004C10.4141 0.303004 11.4171 0.675004 11.9821 1.023L12.1501 1.126L11.7651 1.106C10.9991 1.068 9.88508 1.376 8.68708 1.959C8.32608 2.135 8.01108 2.275 7.98808 2.271C7.76697 2.17117 7.54888 2.06479 7.33408 1.952H7.33508Z" fill="white"/>
</svg>
